#!OML:ASF F:\VICON\USERDATA\INSTALL\rory3\rory3.ASF
:FULLY-SPECIFIED
:DEGREES
168
root 0.872975 21.6351 -15.8664 8.38621 -3.10907 1.27122
lowerback 6.09971 2.22065 0.390135
upperback -0.578946 3.02032 0.790668
thorax -4.0395 1.49867 0.310986
lowerneck -14.4518 -3.59449 -11.2181
upperneck 11.3623 -4.03706 10.2328
head 6.25645 -1.65832 4.74424
rclavicle 5.03919e-014 1.27222e-014
rhumerus -46.126 30.0047 -68.6438
rradius 99.5316
rwrist 1.4642
rhand -29.4714 26.3364
rfingers 7.12502
rthumb -2.80698 -3.62487
lclavicle 5.03919e-014 1.27222e-014
lhumerus -30.1701 -17.8163 54.8827
lradius 107.814
lwrist 2.30056
lhand -26.6119 14.9666
lfingers 7.12502
lthumb -0.0452542 44.9463
rfemur -13.4453 -1.16629 16.5545
rtibia 21.2784
rfoot 18.9507 -23.8707
rtoes 21.3961
lfemur -11.3671 4.40873 -19.3554
ltibia 20.1718
lfoot 31.0692 8.7274
ltoes 14.0981
169
root 0.852965 22.0304 -15.8736 7.58563 -3.07195 1.38695
lowerback 6.99241 2.06663 0.11697
upperback -0.374363 2.80332 0.933879
thorax -4.34921 1.39661 0.602199
lowerneck -14.3291 -3.42314 -11.5624
upperneck 11.7976 -3.75218 10.1114
head 6.34456 -1.55004 4.79718
rclavicle 2.46493e-014 -7.95139e-016
rhumerus -45.457 29.0134 -70.4587
rradius 95.4911
rwrist 3.30483
rhand -27.9812 26.2471
rfingers 7.12502
rthumb -1.3678 -3.72824
lclavicle 2.46493e-014 -7.95139e-016
lhumerus -31.8689 -16.0068 57.7224
lradius 105.198
lwrist 2.86175
lhand -26.4059 14.1134
lfingers 7.12502
lthumb 0.153671 44.0931
rfemur -13.0474 -3.01932 16.7905
rtibia 22.3289
rfoot 21.9143 -24.079
rtoes 24.1783
lfemur -10.6842 5.47248 -19.4049
ltibia 21.2719
lfoot 36.2888 2.75065
ltoes 13.9073
170
root 0.840051 22.3923 -15.8995 6.69938 -3.23552 1.05103
lowerback 8.34086 2.05791 0.357393
upperback -0.339157 2.83077 1.08804
thorax -5.06901 1.4024 0.573834
lowerneck -13.4968 -3.32576 -11.455
upperneck 11.7412 -3.67308 9.7473
head 6.16635 -1.5555 4.66812
rclavicle -1.77912e-014 -1.51076e-014
rhumerus -45.145 27.4345 -72.3156
rradius 91.434
rwrist 5.56642
rhand -26.0206 25.0768
rfingers 7.12502
rthumb 0.525827 -4.90226
lclavicle -1.77912e-014 -1.51076e-014
lhumerus -33.2231 -14.2333 60.3249
lradius 102.263
lwrist 2.73337
lhand -26.2044 14.2676
lfingers 7.12502
lthumb 0.348332 44.2471
rfemur -12.78 -4.61719 17.4347
rtibia 23.8038
rfoot 23.4516 -22.1263
rtoes 24.1381
lfemur -10.1752 5.61006 -18.937
ltibia 22.9532
lfoot 38.6399 -0.649809
ltoes 15.7961
171
root 0.841825 22.7378 -15.9394 5.76588 -3.48052 0.893499
lowerback 9.74149 2.27037 0.774895
upperback -0.387743 3.16377 0.889668
thorax -5.87948 1.54507 0.0310977
lowerneck -11.7434 -3.32889 -10.5888
upperneck 11.2079 -3.9066 9.16105
head 5.69718 -1.71331 4.31198
rclavicle -2.28602e-014 -1.51076e-014
rhumerus -45.2273 24.7403 -74.2488
rradius 87.2127
rwrist 7.53266
rhand -24.8666 23.4745
rfingers 7.12502
rthumb 1.64042 -6.49894
lclavicle -2.28602e-014 -1.51076e-014
lhumerus -34.1558 -13.1131 62.4384
lradius 99.2696
lwrist 2.00222
lhand -26.0213 15.3385
lfingers 7.12502
lthumb 0.525158 45.3176
rfemur -12.6573 -5.60731 17.7246
rtibia 25.5394
rfoot 24.8622 -19.6559
rtoes 22.472
lfemur -9.92068 5.23967 -18.6602
ltibia 25.1146
lfoot 38.9953 -5.0851
ltoes 11.6604
172
root 0.854792 23.0679 -15.9813 4.73353 -3.71485 0.903483
lowerback 11.0352 2.35232 1.1279
upperback 0.319183 3.31439 0.797011
thorax -5.83669 1.60623 -0.324837
lowerneck -12.9829 -3.4947 -10.5207
upperneck 11.6242 -4.01908 8.9841
head 6.0454 -1.74974 4.22841
rclavicle 1.98785e-015 -3.18055e-015
rhumerus -43.3119 21.9489 -75.0493
rradius 82.6193
rwrist 8.83814
rhand -24.3751 22.2119
rfingers 7.12502
rthumb 2.1151 -7.75737
lclavicle 1.98785e-015 -3.18055e-015
lhumerus -33.683 -10.6882 64.3893
lradius 95.8611
lwrist 1.08667
lhand -25.9599 16.7909
lfingers 7.12502
lthumb 0.584517 46.7698
rfemur -12.5373 -6.33514 17.7305
rtibia 27.3352
rfoot 26.4593 -16.5558
rtoes 20.5125
lfemur -9.72785 4.94527 -18.5584
ltibia 27.5295
lfoot 39.4683 -7.49526
ltoes 9.86584
